<mxfile host="app.diagrams.net" modified="2023-05-21T12:26:19.256Z" agent="Mozilla/5.0 (Macintosh; Intel Mac OS X 10_15_7) AppleWebKit/605.1.15 (KHTML, like Gecko) Version/15.6.1 Safari/605.1.15" etag="BmwJ_MdwS0ziSJjHOMY3" version="21.3.2" type="device" pages="3">
  <diagram name="usecase" id="w3lY8FQsQHVYptDcc88Z">
    <mxGraphModel dx="681" dy="474" grid="1" gridSize="10" guides="1" tooltips="1" connect="1" arrows="1" fold="1" page="1" pageScale="1" pageWidth="827" pageHeight="1169" math="0" shadow="0">
      <root>
        <mxCell id="0" />
        <mxCell id="1" parent="0" />
        <mxCell id="XVTKGxzbPmzEa_PGtRW8-4" style="rounded=0;orthogonalLoop=1;jettySize=auto;html=1;" edge="1" parent="1" source="XVTKGxzbPmzEa_PGtRW8-1" target="XVTKGxzbPmzEa_PGtRW8-2">
          <mxGeometry relative="1" as="geometry" />
        </mxCell>
        <mxCell id="XVTKGxzbPmzEa_PGtRW8-1" value="Pemilik" style="shape=umlActor;verticalLabelPosition=bottom;verticalAlign=top;html=1;outlineConnect=0;" vertex="1" parent="1">
          <mxGeometry x="110" y="160" width="30" height="60" as="geometry" />
        </mxCell>
        <mxCell id="XVTKGxzbPmzEa_PGtRW8-8" value="&amp;lt;&amp;lt; &amp;nbsp;extend &amp;gt;&amp;gt;" style="edgeStyle=orthogonalEdgeStyle;rounded=0;orthogonalLoop=1;jettySize=auto;html=1;entryX=0;entryY=0.5;entryDx=0;entryDy=0;dashed=1;endArrow=none;endFill=0;" edge="1" parent="1" source="XVTKGxzbPmzEa_PGtRW8-2" target="XVTKGxzbPmzEa_PGtRW8-7">
          <mxGeometry x="-0.3333" relative="1" as="geometry">
            <mxPoint as="offset" />
          </mxGeometry>
        </mxCell>
        <mxCell id="XVTKGxzbPmzEa_PGtRW8-2" value="Transaksi" style="ellipse;whiteSpace=wrap;html=1;" vertex="1" parent="1">
          <mxGeometry x="280" y="150" width="120" height="80" as="geometry" />
        </mxCell>
        <mxCell id="XVTKGxzbPmzEa_PGtRW8-5" value="Pelanggan" style="shape=umlActor;verticalLabelPosition=bottom;verticalAlign=top;html=1;outlineConnect=0;" vertex="1" parent="1">
          <mxGeometry x="550" y="160" width="30" height="60" as="geometry" />
        </mxCell>
        <mxCell id="XVTKGxzbPmzEa_PGtRW8-9" style="edgeStyle=orthogonalEdgeStyle;rounded=0;orthogonalLoop=1;jettySize=auto;html=1;entryX=0.5;entryY=0;entryDx=0;entryDy=0;entryPerimeter=0;" edge="1" parent="1" source="XVTKGxzbPmzEa_PGtRW8-7" target="XVTKGxzbPmzEa_PGtRW8-5">
          <mxGeometry relative="1" as="geometry" />
        </mxCell>
        <mxCell id="XVTKGxzbPmzEa_PGtRW8-7" value="CRONJOB" style="ellipse;whiteSpace=wrap;html=1;" vertex="1" parent="1">
          <mxGeometry x="390" y="40" width="120" height="80" as="geometry" />
        </mxCell>
        <mxCell id="XVTKGxzbPmzEa_PGtRW8-11" value="&amp;lt;&amp;lt; &amp;nbsp;include &amp;gt;&amp;gt;" style="rounded=0;orthogonalLoop=1;jettySize=auto;html=1;entryX=0.5;entryY=1;entryDx=0;entryDy=0;endArrow=none;endFill=0;dashed=1;" edge="1" parent="1" source="XVTKGxzbPmzEa_PGtRW8-10" target="XVTKGxzbPmzEa_PGtRW8-2">
          <mxGeometry relative="1" as="geometry">
            <Array as="points" />
          </mxGeometry>
        </mxCell>
        <mxCell id="XVTKGxzbPmzEa_PGtRW8-10" value="Konfimasi &lt;br&gt;Transaksi" style="ellipse;whiteSpace=wrap;html=1;" vertex="1" parent="1">
          <mxGeometry x="280" y="290" width="120" height="80" as="geometry" />
        </mxCell>
      </root>
    </mxGraphModel>
  </diagram>
  <diagram id="odmqv79fdkDqHpmZNa8R" name="activity-diagram ">
    <mxGraphModel dx="830" dy="1746" grid="1" gridSize="10" guides="1" tooltips="1" connect="1" arrows="1" fold="1" page="1" pageScale="1" pageWidth="827" pageHeight="1169" math="0" shadow="0">
      <root>
        <mxCell id="0" />
        <mxCell id="1" parent="0" />
        <mxCell id="BL_LlrSOfXyk0_Ps3nOP-11" value="Pemilik" style="swimlane;whiteSpace=wrap;html=1;" vertex="1" parent="1">
          <mxGeometry x="60" y="-20" width="200" height="420" as="geometry" />
        </mxCell>
        <mxCell id="BL_LlrSOfXyk0_Ps3nOP-16" value="Melakukan Input data Pelanggan" style="rounded=1;whiteSpace=wrap;html=1;" vertex="1" parent="BL_LlrSOfXyk0_Ps3nOP-11">
          <mxGeometry x="30" y="100" width="120" height="60" as="geometry" />
        </mxCell>
        <mxCell id="BL_LlrSOfXyk0_Ps3nOP-18" style="edgeStyle=orthogonalEdgeStyle;rounded=0;orthogonalLoop=1;jettySize=auto;html=1;" edge="1" parent="BL_LlrSOfXyk0_Ps3nOP-11" source="BL_LlrSOfXyk0_Ps3nOP-17" target="BL_LlrSOfXyk0_Ps3nOP-16">
          <mxGeometry relative="1" as="geometry" />
        </mxCell>
        <mxCell id="BL_LlrSOfXyk0_Ps3nOP-17" value="" style="ellipse;whiteSpace=wrap;html=1;aspect=fixed;" vertex="1" parent="BL_LlrSOfXyk0_Ps3nOP-11">
          <mxGeometry x="80" y="40" width="20" height="20" as="geometry" />
        </mxCell>
        <mxCell id="BL_LlrSOfXyk0_Ps3nOP-25" value="" style="ellipse;html=1;shape=endState;fillColor=#000000;strokeColor=#FFFFFF;" vertex="1" parent="BL_LlrSOfXyk0_Ps3nOP-11">
          <mxGeometry x="65" y="350" width="30" height="30" as="geometry" />
        </mxCell>
        <mxCell id="q7wBRki4o14Yx8mCiPcq-4" style="edgeStyle=orthogonalEdgeStyle;rounded=0;orthogonalLoop=1;jettySize=auto;html=1;entryX=0.5;entryY=0;entryDx=0;entryDy=0;" edge="1" parent="BL_LlrSOfXyk0_Ps3nOP-11" source="q7wBRki4o14Yx8mCiPcq-1" target="BL_LlrSOfXyk0_Ps3nOP-25">
          <mxGeometry relative="1" as="geometry" />
        </mxCell>
        <mxCell id="q7wBRki4o14Yx8mCiPcq-1" value="Mengkonfirmasi Pengambilan&amp;nbsp;" style="rounded=1;whiteSpace=wrap;html=1;" vertex="1" parent="BL_LlrSOfXyk0_Ps3nOP-11">
          <mxGeometry x="20" y="240" width="120" height="60" as="geometry" />
        </mxCell>
        <mxCell id="BL_LlrSOfXyk0_Ps3nOP-19" value="CORNJOB" style="swimlane;whiteSpace=wrap;html=1;" vertex="1" parent="1">
          <mxGeometry x="260" y="-20" width="200" height="420" as="geometry" />
        </mxCell>
        <mxCell id="BL_LlrSOfXyk0_Ps3nOP-21" value="Mengirim Notifikasi Kepada Pelanggan" style="rounded=1;whiteSpace=wrap;html=1;" vertex="1" parent="BL_LlrSOfXyk0_Ps3nOP-19">
          <mxGeometry x="54" y="100" width="120" height="60" as="geometry" />
        </mxCell>
        <mxCell id="lZEbYPoEPX0ecfx-0629-5" value="" style="edgeStyle=orthogonalEdgeStyle;rounded=0;orthogonalLoop=1;jettySize=auto;html=1;exitX=0.5;exitY=0;exitDx=0;exitDy=0;entryX=0.5;entryY=1;entryDx=0;entryDy=0;" edge="1" parent="BL_LlrSOfXyk0_Ps3nOP-19" source="lZEbYPoEPX0ecfx-0629-1" target="BL_LlrSOfXyk0_Ps3nOP-21">
          <mxGeometry relative="1" as="geometry" />
        </mxCell>
        <mxCell id="lZEbYPoEPX0ecfx-0629-7" value="belum Melakukan Pengambilan" style="edgeLabel;html=1;align=center;verticalAlign=middle;resizable=0;points=[];" vertex="1" connectable="0" parent="lZEbYPoEPX0ecfx-0629-5">
          <mxGeometry x="0.128" y="1" relative="1" as="geometry">
            <mxPoint as="offset" />
          </mxGeometry>
        </mxCell>
        <mxCell id="lZEbYPoEPX0ecfx-0629-1" value="" style="rhombus;whiteSpace=wrap;html=1;" vertex="1" parent="BL_LlrSOfXyk0_Ps3nOP-19">
          <mxGeometry x="74" y="230" width="80" height="80" as="geometry" />
        </mxCell>
        <mxCell id="BL_LlrSOfXyk0_Ps3nOP-24" value="Pelanggan" style="swimlane;whiteSpace=wrap;html=1;" vertex="1" parent="1">
          <mxGeometry x="460" y="-20" width="200" height="420" as="geometry" />
        </mxCell>
        <mxCell id="BL_LlrSOfXyk0_Ps3nOP-26" value="Menerima notifikasi" style="rounded=1;whiteSpace=wrap;html=1;" vertex="1" parent="BL_LlrSOfXyk0_Ps3nOP-24">
          <mxGeometry x="30" y="100" width="120" height="60" as="geometry" />
        </mxCell>
        <mxCell id="etdAED_jo381_7Ep0EkW-4" style="rounded=0;orthogonalLoop=1;jettySize=auto;html=1;entryX=0;entryY=0.5;entryDx=0;entryDy=0;" edge="1" parent="1" source="BL_LlrSOfXyk0_Ps3nOP-16" target="BL_LlrSOfXyk0_Ps3nOP-21">
          <mxGeometry relative="1" as="geometry" />
        </mxCell>
        <mxCell id="etdAED_jo381_7Ep0EkW-5" style="rounded=0;orthogonalLoop=1;jettySize=auto;html=1;" edge="1" parent="1" source="BL_LlrSOfXyk0_Ps3nOP-21" target="BL_LlrSOfXyk0_Ps3nOP-26">
          <mxGeometry relative="1" as="geometry" />
        </mxCell>
        <mxCell id="lZEbYPoEPX0ecfx-0629-3" style="edgeStyle=orthogonalEdgeStyle;rounded=0;orthogonalLoop=1;jettySize=auto;html=1;entryX=1;entryY=0.5;entryDx=0;entryDy=0;" edge="1" parent="1" source="BL_LlrSOfXyk0_Ps3nOP-26" target="lZEbYPoEPX0ecfx-0629-1">
          <mxGeometry relative="1" as="geometry">
            <Array as="points">
              <mxPoint x="560" y="250" />
            </Array>
          </mxGeometry>
        </mxCell>
        <mxCell id="lZEbYPoEPX0ecfx-0629-4" value="Melakukan Pengambilan" style="edgeStyle=orthogonalEdgeStyle;rounded=0;orthogonalLoop=1;jettySize=auto;html=1;" edge="1" parent="1" source="lZEbYPoEPX0ecfx-0629-1" target="q7wBRki4o14Yx8mCiPcq-1">
          <mxGeometry relative="1" as="geometry" />
        </mxCell>
      </root>
    </mxGraphModel>
  </diagram>
  <diagram id="NiCDM27UUDdGCrsDWC44" name="squen-diagram">
    <mxGraphModel dx="830" dy="577" grid="1" gridSize="10" guides="1" tooltips="1" connect="1" arrows="1" fold="1" page="1" pageScale="1" pageWidth="827" pageHeight="1169" math="0" shadow="0">
      <root>
        <mxCell id="0" />
        <mxCell id="1" parent="0" />
        <mxCell id="NfPRhO5i8mfhfQqYJAAH-1" value="Pemilik" style="shape=umlLifeline;perimeter=lifelinePerimeter;whiteSpace=wrap;html=1;container=0;dropTarget=0;collapsible=0;recursiveResize=0;outlineConnect=0;portConstraint=eastwest;newEdgeStyle={&quot;edgeStyle&quot;:&quot;elbowEdgeStyle&quot;,&quot;elbow&quot;:&quot;vertical&quot;,&quot;curved&quot;:0,&quot;rounded&quot;:0};" vertex="1" parent="1">
          <mxGeometry x="20" y="20" width="100" height="300" as="geometry" />
        </mxCell>
        <mxCell id="NfPRhO5i8mfhfQqYJAAH-2" value="" style="html=1;points=[];perimeter=orthogonalPerimeter;outlineConnect=0;targetShapes=umlLifeline;portConstraint=eastwest;newEdgeStyle={&quot;edgeStyle&quot;:&quot;elbowEdgeStyle&quot;,&quot;elbow&quot;:&quot;vertical&quot;,&quot;curved&quot;:0,&quot;rounded&quot;:0};" vertex="1" parent="NfPRhO5i8mfhfQqYJAAH-1">
          <mxGeometry x="45" y="70" width="10" height="190" as="geometry" />
        </mxCell>
        <mxCell id="NfPRhO5i8mfhfQqYJAAH-4" value="" style="html=1;points=[];perimeter=orthogonalPerimeter;outlineConnect=0;targetShapes=umlLifeline;portConstraint=eastwest;newEdgeStyle={&quot;edgeStyle&quot;:&quot;elbowEdgeStyle&quot;,&quot;elbow&quot;:&quot;vertical&quot;,&quot;curved&quot;:0,&quot;rounded&quot;:0};" vertex="1" parent="NfPRhO5i8mfhfQqYJAAH-1">
          <mxGeometry x="50" y="120" width="10" height="80" as="geometry" />
        </mxCell>
        <mxCell id="NfPRhO5i8mfhfQqYJAAH-5" value="CRONJOB" style="shape=umlLifeline;perimeter=lifelinePerimeter;whiteSpace=wrap;html=1;container=0;dropTarget=0;collapsible=0;recursiveResize=0;outlineConnect=0;portConstraint=eastwest;newEdgeStyle={&quot;edgeStyle&quot;:&quot;elbowEdgeStyle&quot;,&quot;elbow&quot;:&quot;vertical&quot;,&quot;curved&quot;:0,&quot;rounded&quot;:0};" vertex="1" parent="1">
          <mxGeometry x="200" y="20" width="100" height="300" as="geometry" />
        </mxCell>
        <mxCell id="NfPRhO5i8mfhfQqYJAAH-6" value="" style="html=1;points=[];perimeter=orthogonalPerimeter;outlineConnect=0;targetShapes=umlLifeline;portConstraint=eastwest;newEdgeStyle={&quot;edgeStyle&quot;:&quot;elbowEdgeStyle&quot;,&quot;elbow&quot;:&quot;vertical&quot;,&quot;curved&quot;:0,&quot;rounded&quot;:0};" vertex="1" parent="NfPRhO5i8mfhfQqYJAAH-5">
          <mxGeometry x="45" y="80" width="10" height="90" as="geometry" />
        </mxCell>
        <mxCell id="yUXY2WsKhF6JERGCS6tq-4" value="" style="html=1;points=[];perimeter=orthogonalPerimeter;outlineConnect=0;targetShapes=umlLifeline;portConstraint=eastwest;newEdgeStyle={&quot;edgeStyle&quot;:&quot;elbowEdgeStyle&quot;,&quot;elbow&quot;:&quot;vertical&quot;,&quot;curved&quot;:0,&quot;rounded&quot;:0};" vertex="1" parent="NfPRhO5i8mfhfQqYJAAH-5">
          <mxGeometry x="50" y="120" width="10" height="35" as="geometry" />
        </mxCell>
        <mxCell id="NfPRhO5i8mfhfQqYJAAH-7" value="Data Transaksi" style="html=1;verticalAlign=bottom;endArrow=block;edgeStyle=elbowEdgeStyle;elbow=vertical;curved=0;rounded=0;" edge="1" parent="1" source="NfPRhO5i8mfhfQqYJAAH-2" target="NfPRhO5i8mfhfQqYJAAH-6">
          <mxGeometry x="-0.0024" relative="1" as="geometry">
            <mxPoint x="175" y="110" as="sourcePoint" />
            <Array as="points">
              <mxPoint x="160" y="100" />
            </Array>
            <mxPoint as="offset" />
          </mxGeometry>
        </mxCell>
        <mxCell id="NfPRhO5i8mfhfQqYJAAH-8" value="Mengkonfimasi Pengambilan" style="html=1;verticalAlign=bottom;endArrow=open;dashed=1;endSize=8;edgeStyle=elbowEdgeStyle;elbow=vertical;curved=0;rounded=0;" edge="1" parent="1" source="NfPRhO5i8mfhfQqYJAAH-6" target="NfPRhO5i8mfhfQqYJAAH-2">
          <mxGeometry x="0.3061" relative="1" as="geometry">
            <mxPoint x="175" y="185" as="targetPoint" />
            <Array as="points">
              <mxPoint x="170" y="260" />
            </Array>
            <mxPoint as="offset" />
          </mxGeometry>
        </mxCell>
        <mxCell id="BKfmLxuXKl9TYZHj0TZS-1" value="Pelanggan" style="shape=umlLifeline;perimeter=lifelinePerimeter;whiteSpace=wrap;html=1;container=0;dropTarget=0;collapsible=0;recursiveResize=0;outlineConnect=0;portConstraint=eastwest;newEdgeStyle={&quot;edgeStyle&quot;:&quot;elbowEdgeStyle&quot;,&quot;elbow&quot;:&quot;vertical&quot;,&quot;curved&quot;:0,&quot;rounded&quot;:0};" vertex="1" parent="1">
          <mxGeometry x="400" y="20" width="100" height="300" as="geometry" />
        </mxCell>
        <mxCell id="BKfmLxuXKl9TYZHj0TZS-2" value="" style="html=1;points=[];perimeter=orthogonalPerimeter;outlineConnect=0;targetShapes=umlLifeline;portConstraint=eastwest;newEdgeStyle={&quot;edgeStyle&quot;:&quot;elbowEdgeStyle&quot;,&quot;elbow&quot;:&quot;vertical&quot;,&quot;curved&quot;:0,&quot;rounded&quot;:0};" vertex="1" parent="BKfmLxuXKl9TYZHj0TZS-1">
          <mxGeometry x="45" y="80" width="10" height="140" as="geometry" />
        </mxCell>
        <mxCell id="yUXY2WsKhF6JERGCS6tq-1" value="" style="html=1;points=[];perimeter=orthogonalPerimeter;outlineConnect=0;targetShapes=umlLifeline;portConstraint=eastwest;newEdgeStyle={&quot;edgeStyle&quot;:&quot;elbowEdgeStyle&quot;,&quot;elbow&quot;:&quot;vertical&quot;,&quot;curved&quot;:0,&quot;rounded&quot;:0};" vertex="1" parent="BKfmLxuXKl9TYZHj0TZS-1">
          <mxGeometry x="52" y="90" width="10" height="80" as="geometry" />
        </mxCell>
        <mxCell id="BKfmLxuXKl9TYZHj0TZS-3" value="Mengirim notifikasi" style="html=1;verticalAlign=bottom;endArrow=block;edgeStyle=elbowEdgeStyle;elbow=vertical;curved=0;rounded=0;" edge="1" parent="1" source="NfPRhO5i8mfhfQqYJAAH-6" target="BKfmLxuXKl9TYZHj0TZS-2">
          <mxGeometry relative="1" as="geometry">
            <mxPoint x="280" y="100" as="sourcePoint" />
            <Array as="points">
              <mxPoint x="365" y="100" />
            </Array>
            <mxPoint x="450" y="100" as="targetPoint" />
          </mxGeometry>
        </mxCell>
        <mxCell id="yUXY2WsKhF6JERGCS6tq-2" style="edgeStyle=elbowEdgeStyle;rounded=0;orthogonalLoop=1;jettySize=auto;html=1;elbow=vertical;curved=0;" edge="1" parent="1" source="BKfmLxuXKl9TYZHj0TZS-2" target="yUXY2WsKhF6JERGCS6tq-4">
          <mxGeometry relative="1" as="geometry" />
        </mxCell>
        <mxCell id="yUXY2WsKhF6JERGCS6tq-3" value="belum melakukan Pengambilan" style="edgeLabel;html=1;align=center;verticalAlign=middle;resizable=0;points=[];" vertex="1" connectable="0" parent="yUXY2WsKhF6JERGCS6tq-2">
          <mxGeometry x="0.2371" relative="1" as="geometry">
            <mxPoint x="20" as="offset" />
          </mxGeometry>
        </mxCell>
        <mxCell id="yUXY2WsKhF6JERGCS6tq-6" style="edgeStyle=elbowEdgeStyle;rounded=0;orthogonalLoop=1;jettySize=auto;html=1;elbow=vertical;curved=0;" edge="1" parent="1" target="NfPRhO5i8mfhfQqYJAAH-4">
          <mxGeometry relative="1" as="geometry">
            <mxPoint x="455" y="220" as="sourcePoint" />
            <mxPoint x="270" y="220" as="targetPoint" />
          </mxGeometry>
        </mxCell>
        <mxCell id="yUXY2WsKhF6JERGCS6tq-7" value="melakukan Pengambilan" style="edgeLabel;html=1;align=center;verticalAlign=middle;resizable=0;points=[];" vertex="1" connectable="0" parent="yUXY2WsKhF6JERGCS6tq-6">
          <mxGeometry x="0.2371" relative="1" as="geometry">
            <mxPoint x="36" as="offset" />
          </mxGeometry>
        </mxCell>
      </root>
    </mxGraphModel>
  </diagram>
</mxfile>
